<?xml version="1.0" encoding="iso-8859-1"?>
<!-- Generator: Adobe Illustrator 19.0.0, SVG Export Plug-In . SVG Version: 6.00 Build 0)  -->
<!-- License: CC0. Made by SVG Repo: https://www.svgrepo.com/svg/124976/3d -->
<svg version="1.1" id="Layer_1" xmlns="http://www.w3.org/2000/svg" xmlns:xlink="http://www.w3.org/1999/xlink" x="0px" y="0px"
	 viewBox="0 0 298.75 298.75" style="enable-background:new 0 0 298.75 298.75;" xml:space="preserve">
<g>
	<g>
		<g>
			<path d="M131.331,208.801c3.249-1.285,6.032-3.098,8.349-5.441c2.316-2.342,4.092-5.163,5.327-8.462
				c1.234-3.298,1.851-6.989,1.851-11.069c0-3.677-0.555-7.14-1.662-10.39c-1.108-3.249-2.771-6.082-4.987-8.5
				c-2.217-2.418-4.975-4.332-8.274-5.743c-3.3-1.41-7.141-2.115-11.523-2.115h-19.494v53.646h19.494
				C124.442,210.728,128.082,210.086,131.331,208.801z M111.346,166.223h9.067c2.518,0,4.772,0.429,6.762,1.285
				c1.989,0.856,3.665,2.066,5.025,3.626c1.36,1.562,2.392,3.426,3.098,5.591c0.705,2.167,1.058,4.534,1.058,7.102
				c0,2.521-0.353,4.862-1.058,7.028c-0.706,2.167-1.726,4.042-3.06,5.63c-1.335,1.587-2.998,2.833-4.987,3.74
				c-1.99,0.906-4.269,1.36-6.838,1.36h-9.067V166.223z"/>
			<path d="M77.52,200.988c-1.612,1.208-3.955,1.814-7.027,1.814c-2.72,0-4.987-0.453-6.8-1.36
				c-1.814-0.906-3.375-2.191-4.685-3.853l-5.743,7.178c1.965,2.367,4.42,4.168,7.367,5.403c2.947,1.233,6.334,1.851,10.163,1.851
				c3.023,0,5.743-0.366,8.16-1.096c2.418-0.73,4.47-1.764,6.158-3.098c1.687-1.335,2.996-2.96,3.929-4.873
				c0.932-1.915,1.398-4.054,1.398-6.423c0-3.525-0.971-6.51-2.909-8.954c-1.938-2.444-4.469-3.943-7.592-4.497
				c1.41-0.251,2.707-0.756,3.891-1.512c1.183-0.755,2.203-1.687,3.06-2.796c0.856-1.107,1.511-2.342,1.964-3.702
				c0.453-1.36,0.68-2.796,0.68-4.307c0-2.014-0.415-3.841-1.247-5.478c-0.831-1.637-2.015-3.034-3.551-4.194
				c-1.537-1.158-3.362-2.065-5.478-2.72c-2.115-0.654-4.458-0.982-7.027-0.982c-1.965,0-3.88,0.189-5.743,0.567
				c-1.864,0.378-3.589,0.907-5.176,1.587c-1.587,0.68-3.011,1.486-4.269,2.418c-1.26,0.933-2.267,1.978-3.023,3.136l6.347,7.102
				c1.158-1.914,2.656-3.4,4.496-4.458c1.838-1.058,3.916-1.587,6.234-1.587c2.267,0,4.105,0.504,5.516,1.511
				c1.41,1.008,2.115,2.544,2.115,4.61c0,2.166-0.857,3.942-2.569,5.327c-1.713,1.386-4.131,2.078-7.254,2.078h-2.342v7.556h2.115
				c3.778,0,6.598,0.706,8.463,2.115c1.863,1.411,2.796,3.426,2.796,6.045C79.938,197.916,79.132,199.779,77.52,200.988z"/>
			<path d="M101.664,19.634L0,70.466v208.651h197.086l101.664-50.832V19.634H101.664z M191.431,269.966H9.15V77.869h182.281V269.966
				z M194.925,68.719H23.955l79.87-39.935h170.971L194.925,68.719z M289.601,222.629l-89.02,44.51V76.12l89.02-44.509V222.629z"/>
		</g>
	</g>
</g>
</svg>
