<?xml version="1.0" encoding="utf-8"?>
<svg xmlns="http://www.w3.org/2000/svg" viewBox="149.912 174.234 112 40" width="112px" height="40px">
  <path d="M 149.912 198.234 C 159.831 198.072 169.749 197.948 179.668 197.872 C 184.275 197.835 188.88 197.786 193.486 197.706 C 197.934 197.63 202.382 197.588 206.83 197.57 C 208.524 197.557 210.218 197.532 211.912 197.494 C 225.189 197.209 225.189 197.209 229.551 199.804 C 231.32 201.532 232.69 203.091 233.912 205.234 C 233.912 205.564 233.912 205.894 233.912 206.234 C 211.472 206.234 189.032 206.234 165.912 206.234 C 165.912 208.874 165.912 211.514 165.912 214.234 C 160.268 209.551 154.907 204.614 149.912 199.234 C 149.912 198.904 149.912 198.574 149.912 198.234 Z" style="stroke-width: 1;"/>
  <path d="M 245.912 174.234 C 251.557 178.918 256.918 183.855 261.912 189.234 C 261.912 189.564 261.912 189.894 261.912 190.234 C 251.994 190.397 242.076 190.521 232.156 190.597 C 227.55 190.634 222.944 190.683 218.338 190.763 C 213.89 190.839 209.443 190.88 204.995 190.899 C 203.3 190.911 201.606 190.937 199.913 190.975 C 186.636 191.26 186.636 191.26 182.273 188.665 C 180.504 186.937 179.135 185.378 177.912 183.234 C 177.912 182.904 177.912 182.574 177.912 182.234 C 200.352 182.234 222.792 182.234 245.912 182.234 C 245.912 179.594 245.912 176.954 245.912 174.234 Z" style="stroke-width: 1;"/>
</svg>