<?xml version="1.0" encoding="utf-8"?>
<svg xmlns="http://www.w3.org/2000/svg" viewBox="233.657 233.658 32.685 32.685" width="32.685px" height="32.685px">
  <path d="M 259 250 C 259 254.97 254.971 259 250 259 C 247.695 259 245.592 258.133 244 256.708 L 241 254 M 241 250 C 241 245.029 245.029 241 250 241 C 252.305 241 254.408 241.866 256 243.291 L 259 246 M 241 259 L 241 254 M 241 254 L 246 254 M 259 241 L 259 246 M 259 246 L 254 246" stroke="#000000" stroke-width="2" stroke-linecap="round" stroke-linejoin="round" style="stroke-width: 2; fill-rule: evenodd; fill: none;"/>
  <path d="M 249.999 233.658 C 240.974 233.658 233.657 240.975 233.657 250 C 233.657 259.026 240.974 266.343 249.999 266.343 C 259.025 266.343 266.342 259.026 266.342 250 C 266.331 240.979 259.021 233.669 250.001 233.658 L 249.999 233.658 Z M 264.68 250 C 264.68 253.706 263.345 257.101 261.071 259.675 L 261.039 259.646 L 240.243 239.063 C 242.825 236.74 246.259 235.32 250.025 235.32 C 258.119 235.32 264.68 241.881 264.68 249.975 C 264.68 249.984 264.68 249.993 264.68 250.002 L 264.68 250 Z M 235.319 250 C 235.32 246.24 236.714 242.808 239.049 240.22 L 239.067 240.237 L 259.875 260.832 C 257.277 263.219 253.796 264.681 249.975 264.681 C 241.881 264.681 235.319 258.12 235.319 250.025 C 235.319 250.016 235.319 250.007 235.319 249.998 L 235.319 249.999 L 235.319 250 Z" style="paint-order: fill; stroke: rgb(0, 0, 0); fill: rgb(52, 52, 52); stroke-width: 0px;"/>
</svg>